<?xml version="1.0" encoding="UTF-8" standalone="no"?>
<svg
   width="47.799"
   height="47.798851"
   viewBox="0 0 47.799 47.798851"
   fill="none"
   version="1.1"
   id="svg43"
   sodipodi:docname="btb.svg"
   xmlns:inkscape="http://www.inkscape.org/namespaces/inkscape"
   xmlns:sodipodi="http://sodipodi.sourceforge.net/DTD/sodipodi-0.dtd"
   xmlns="http://www.w3.org/2000/svg"
   xmlns:svg="http://www.w3.org/2000/svg">
  <sodipodi:namedview
     id="namedview43"
     pagecolor="#ffffff"
     bordercolor="#000000"
     borderopacity="0.25"
     inkscape:showpageshadow="2"
     inkscape:pageopacity="0.0"
     inkscape:pagecheckerboard="0"
     inkscape:deskcolor="#d1d1d1"
     inkscape:zoom="17.279922"
     inkscape:cx="47.222435"
     inkscape:cy="45.862476"
     inkscape:window-width="2560"
     inkscape:window-height="1369"
     inkscape:window-x="1912"
     inkscape:window-y="-8"
     inkscape:window-maximized="1"
     inkscape:current-layer="svg43" />
  <g
     clip-path="url(#clip0_3989_14887)"
     id="g13"
     style="fill-rule:evenodd"
     transform="translate(-24.1005,-24.100575)">
    <g
       clip-path="url(#clip1_3989_14887)"
       id="g12"
       style="fill-rule:evenodd">
      <path
         d="m 41,41 c 3.866,3.866 10.134,3.866 14,1e-4 C 58.866,37.1341 58.866,30.866 55,27 51.134,23.1341 44.866,23.1341 41,27 c -3.866,3.866 -3.866,10.134 0,14 z"
         fill="url(#paint0_linear_3989_14887)"
         id="path1"
         style="fill:url(#paint0_linear_3989_14887);fill-rule:evenodd"
         inkscape:label="path1" />
      <path
         d="m 41,41 c 3.866,3.866 10.134,3.866 14,1e-4 C 58.866,37.1341 58.866,30.866 55,27 51.134,23.1341 44.866,23.1341 41,27 c -3.866,3.866 -3.866,10.134 0,14 z"
         fill="url(#paint1_radial_3989_14887)"
         id="path2"
         style="fill:url(#paint1_radial_3989_14887);fill-rule:evenodd" />
      <path
         d="m 41,41 c 3.866,3.866 10.134,3.866 14,1e-4 C 58.866,37.1341 58.866,30.866 55,27 51.134,23.1341 44.866,23.1341 41,27 c -3.866,3.866 -3.866,10.134 0,14 z"
         fill="url(#paint2_linear_3989_14887)"
         id="path3"
         style="fill:url(#paint2_linear_3989_14887);fill-rule:evenodd" />
      <path
         d="M 55,55 C 51.134,51.134 44.866,51.134 41,54.9999 37.134,58.8659 37.134,65.134 41,69 c 3.866,3.8659 10.134,3.8659 14,0 3.866,-3.866 3.866,-10.134 0,-14 z"
         fill="url(#paint3_linear_3989_14887)"
         id="path4"
         style="fill:url(#paint3_linear_3989_14887);fill-rule:evenodd" />
      <path
         d="M 55,55 C 51.134,51.134 44.866,51.134 41,54.9999 37.134,58.8659 37.134,65.134 41,69 c 3.866,3.8659 10.134,3.8659 14,0 3.866,-3.866 3.866,-10.134 0,-14 z"
         fill="url(#paint4_linear_3989_14887)"
         id="path5"
         style="fill:url(#paint4_linear_3989_14887);fill-rule:evenodd" />
      <path
         d="M 55,55 C 51.134,51.134 44.866,51.134 41,54.9999 37.134,58.8659 37.134,65.134 41,69 c 3.866,3.8659 10.134,3.8659 14,0 3.866,-3.866 3.866,-10.134 0,-14 z"
         fill="url(#paint5_radial_3989_14887)"
         id="path6"
         style="fill:url(#paint5_radial_3989_14887);fill-rule:evenodd" />
      <path
         d="m 41,55 c 3.866,3.866 10.134,3.866 14,0 3.866,-3.866 3.866,-10.134 0,-14 -3.866,-3.866 -10.134,-3.866 -14,0 -3.866,3.866 -3.866,10.134 0,14 z"
         fill="url(#paint6_linear_3989_14887)"
         id="path7"
         style="fill:url(#paint6_linear_3989_14887);fill-rule:evenodd" />
      <path
         d="m 41,55 c 3.866,3.866 10.134,3.866 14,0 3.866,-3.866 3.866,-10.134 0,-14 -3.866,-3.866 -10.134,-3.866 -14,0 -3.866,3.866 -3.866,10.134 0,14 z"
         fill="url(#paint7_radial_3989_14887)"
         id="path8"
         style="fill:url(#paint7_radial_3989_14887);fill-rule:evenodd" />
      <path
         d="m 41,55 c 3.866,3.866 10.134,3.866 14,0 3.866,-3.866 3.866,-10.134 0,-14 -3.866,-3.866 -10.134,-3.866 -14,0 -3.866,3.866 -3.866,10.134 0,14 z"
         fill="url(#paint8_radial_3989_14887)"
         id="path9"
         style="mix-blend-mode:normal;fill:url(#paint8_radial_3989_14887);fill-rule:evenodd" />
      <path
         d="M 27,41 41,27 c -3.866,3.866 -3.866,10.1341 0,14.0001 3.866,3.8659 3.866,10.134 0,14 C 37.134,58.866 30.866,58.866 27,55 23.134,51.134 23.134,44.866 27,41 Z"
         fill="url(#paint9_linear_3989_14887)"
         id="path10"
         style="fill:url(#paint9_linear_3989_14887);fill-rule:evenodd" />
      <path
         d="M 27,41 41,27 c -3.866,3.866 -3.866,10.1341 0,14.0001 3.866,3.8659 3.866,10.134 0,14 C 37.134,58.866 30.866,58.866 27,55 23.134,51.134 23.134,44.866 27,41 Z"
         fill="url(#paint10_radial_3989_14887)"
         id="path11"
         style="fill:url(#paint10_radial_3989_14887);fill-rule:evenodd" />
      <path
         d="M 69,55 55,69 c 3.866,-3.866 3.866,-10.1341 0,-14.0001 -3.866,-3.8659 -3.866,-10.134 0,-14 3.866,-3.8659 10.134,-3.8659 14,1e-4 3.866,3.866 3.866,10.134 0,14 z"
         fill="url(#paint11_linear_3989_14887)"
         id="path12"
         style="fill:url(#paint11_linear_3989_14887);fill-rule:evenodd" />
    </g>
  </g>
  <defs
     id="defs43">
    <linearGradient
       id="paint0_linear_3989_14887"
       x1="39"
       y1="28.750099"
       x2="57.5"
       y2="36.500099"
       gradientUnits="userSpaceOnUse">
      <stop
         stop-color="#0C74A1"
         id="stop13"
         offset="0"
         style="stop-color:#5f2bf5;stop-opacity:1;" />
      <stop
         offset="0.46815199"
         stop-color="#1384B1"
         id="stop14"
         style="stop-color:#3d13aa;stop-opacity:1;" />
      <stop
         offset="1"
         stop-color="#16BBDA"
         id="stop15"
         style="stop-color:#3f17dc;stop-opacity:1;" />
    </linearGradient>
    <radialGradient
       id="paint1_radial_3989_14887"
       cx="0"
       cy="0"
       r="1"
       gradientUnits="userSpaceOnUse"
       gradientTransform="matrix(0,-14.75,14.75,0,48,48.0001)">
      <stop
         offset="0.45632899"
         stop-color="#0057AA"
         id="stop16"
         style="stop-color:#3400a6;stop-opacity:1;" />
      <stop
         offset="1"
         stop-color="#1384B1"
         stop-opacity="0"
         id="stop17"
         style="stop-color:#2a13b4;stop-opacity:0;" />
    </radialGradient>
    <linearGradient
       id="paint2_linear_3989_14887"
       x1="48.5"
       y1="31.000099"
       x2="37.25"
       y2="36.000099"
       gradientUnits="userSpaceOnUse">
      <stop
         stop-color="#1384B1"
         stop-opacity="0"
         id="stop18"
         offset="0"
         style="stop-color:#3213ad;stop-opacity:0;" />
      <stop
         offset="1"
         stop-color="#004695"
         id="stop19"
         style="stop-color:#1f0091;stop-opacity:1;" />
    </linearGradient>
    <linearGradient
       id="paint3_linear_3989_14887"
       x1="58.25"
       y1="63.749901"
       x2="38.5"
       y2="59.499901"
       gradientUnits="userSpaceOnUse">
      <stop
         stop-color="#06517B"
         id="stop20"
         offset="0"
         style="stop-color:#300781;stop-opacity:1;" />
      <stop
         offset="0.50852299"
         stop-color="#09638E"
         id="stop21"
         style="stop-color:#3c0eac;stop-opacity:1;" />
      <stop
         offset="1"
         stop-color="#0C74A1"
         id="stop22"
         style="stop-color:#400e9f;stop-opacity:1;" />
    </linearGradient>
    <linearGradient
       id="paint4_linear_3989_14887"
       x1="50.5"
       y1="61.999901"
       x2="58.75"
       y2="59.999901"
       gradientUnits="userSpaceOnUse">
      <stop
         stop-color="#09638E"
         stop-opacity="0"
         id="stop23"
         offset="0"
         style="stop-color:#300b8f;stop-opacity:0;" />
      <stop
         offset="1"
         stop-color="#003580"
         id="stop24"
         style="stop-color:#2b0086;stop-opacity:1;" />
    </linearGradient>
    <radialGradient
       id="paint5_radial_3989_14887"
       cx="0"
       cy="0"
       r="1"
       gradientUnits="userSpaceOnUse"
       gradientTransform="matrix(0,18,-18,0,48,47.9999)">
      <stop
         offset="0.42333701"
         stop-color="#003580"
         id="stop25"
         style="stop-color:#220080;stop-opacity:1;" />
      <stop
         offset="1"
         stop-color="#09638E"
         stop-opacity="0"
         id="stop26"
         style="stop-color:#350b8c;stop-opacity:0;" />
    </radialGradient>
    <linearGradient
       id="paint6_linear_3989_14887"
       x1="46.25"
       y1="38.75"
       x2="46.5"
       y2="58.25"
       gradientUnits="userSpaceOnUse">
      <stop
         stop-color="#43E5CA"
         id="stop27"
         offset="0"
         style="stop-color:#7843e6;stop-opacity:1;" />
      <stop
         offset="0.371719"
         stop-color="#26CFE8"
         id="stop28"
         style="stop-color:#3321f2;stop-opacity:1;" />
      <stop
         offset="1"
         stop-color="#1384B1"
         id="stop29"
         style="stop-color:#2012b2;stop-opacity:1;" />
    </linearGradient>
    <radialGradient
       id="paint7_radial_3989_14887"
       cx="0"
       cy="0"
       r="1"
       gradientUnits="userSpaceOnUse"
       gradientTransform="matrix(0,16,-16,0,62,48)">
      <stop
         offset="0.399827"
         stop-color="#09638E"
         id="stop30"
         style="stop-color:#2f098c;stop-opacity:1;" />
      <stop
         offset="1"
         stop-color="#119FC5"
         stop-opacity="0"
         id="stop31"
         style="stop-color:#4b11c6;stop-opacity:0;" />
    </radialGradient>
    <radialGradient
       id="paint8_radial_3989_14887"
       cx="0"
       cy="0"
       r="1"
       gradientUnits="userSpaceOnUse"
       gradientTransform="matrix(0,17,-17,0,34,48)">
      <stop
         offset="0.399827"
         stop-color="#09638E"
         id="stop32"
         style="stop-color:#30088e;stop-opacity:1;" />
      <stop
         offset="1"
         stop-color="#119FC5"
         stop-opacity="0"
         id="stop33"
         style="stop-color:#4417c0;stop-opacity:0;" />
    </radialGradient>
    <linearGradient
       id="paint9_linear_3989_14887"
       x1="31.25"
       y1="37"
       x2="45.75"
       y2="51.5"
       gradientUnits="userSpaceOnUse">
      <stop
         stop-color="#B6F6C7"
         id="stop34"
         offset="0"
         style="stop-color:#ab81f4;stop-opacity:1;" />
      <stop
         offset="0.27784699"
         stop-color="#43E5CA"
         id="stop35"
         style="stop-color:#6440e6;stop-opacity:1;" />
      <stop
         offset="1"
         stop-color="#26CFE8"
         id="stop36"
         style="stop-color:#4f2be5;stop-opacity:1;" />
    </linearGradient>
    <radialGradient
       id="paint10_radial_3989_14887"
       cx="0"
       cy="0"
       r="1"
       gradientUnits="userSpaceOnUse"
       gradientTransform="matrix(9.2500015,20.249959,-20.381668,9.3101652,29.75,37)">
      <stop
         offset="0.58541101"
         stop-color="#2BDABE"
         stop-opacity="0"
         id="stop37"
         style="stop-color:#5e28dd;stop-opacity:0;" />
      <stop
         offset="1"
         stop-color="#119FC5"
         id="stop38"
         style="stop-color:#2d10c6;stop-opacity:1;" />
    </radialGradient>
    <linearGradient
       id="paint11_linear_3989_14887"
       x1="55.5"
       y1="39"
       x2="70.25"
       y2="53.75"
       gradientUnits="userSpaceOnUse">
      <stop
         stop-color="#9FF2E4"
         id="stop39"
         offset="0"
         style="stop-color:#7c70f4;stop-opacity:1;" />
      <stop
         offset="0.266186"
         stop-color="#2BDABE"
         id="stop40"
         style="stop-color:#4e26df;stop-opacity:1;" />
      <stop
         offset="0.620556"
         stop-color="#16BBDA"
         id="stop41"
         style="stop-color:#3c16d8;stop-opacity:1;" />
      <stop
         offset="1"
         stop-color="#1384B1"
         id="stop42"
         style="stop-color:#3b0fb4;stop-opacity:1;" />
    </linearGradient>
    <clipPath
       id="clip0_3989_14887">
      <rect
         width="48"
         height="48"
         fill="#ffffff"
         transform="translate(24,24)"
         id="rect42"
         x="0"
         y="0" />
    </clipPath>
    <clipPath
       id="clip1_3989_14887">
      <rect
         width="48"
         height="48"
         fill="#ffffff"
         transform="translate(24,24)"
         id="rect43"
         x="0"
         y="0" />
    </clipPath>
  </defs>
</svg>
